<svg xmlns="http://www.w3.org/2000/svg" viewBox="0 0 51 51"><g fill="none"><circle cx="25.376" cy="25.376" r="25.378" fill="#FFF"/><path fill="#006341" d="M27.928 10.97c-.222-.04-1.295-.22-2.552-.22-1.257 0-2.33.18-2.552.22-.127.023-.176-.102-.08-.175.089-.065 2.632-2 2.632-2l2.63 2c.098.073.05.198-.078.175zm-4.393 12.567s-.135.048-.17.166c.533.41.9 1.341 2.011 1.341 1.112 0 1.479-.931 2.011-1.34-.035-.12-.17-.167-.17-.167s-.695.164-1.84.164c-1.146 0-1.842-.164-1.842-.164zm1.841-1.568c-.308 0-.376-.117-.587-.116-.2.001-.59.161-.674.307a.322.322 0 0 0 .087.2c.45.069.653.319 1.175.319s.724-.25 1.175-.318a.332.332 0 0 0 .087-.2c-.083-.147-.473-.306-.675-.308-.211-.001-.28.116-.588.116zm25.34 4.799a26.043 26.043 0 0 1-.161 1.802c-2.873.476-3.9-2.084-6.842-1.955.175.624.318 1.26.428 1.91 2.427-.002 3.405 2.267 6.105 1.933a25.723 25.723 0 0 1-.51 2.052c-2.135.21-2.887-1.912-5.358-1.854.02.352.032.708.032 1.066l-.01.593 4.797 1.83c-.251.683-.532 1.35-.838 2.005-1.442-.08-1.94-1.93-4.134-1.783-.066.475-.15.943-.25 1.406 1.906-.134 2.317 1.62 3.682 1.763a26.495 26.495 0 0 1-1.12 1.853c-.81-.433-1.51-1.74-3.044-1.82.157-.486.295-.978.412-1.479-1.36 0-2.916-.53-4.22-1.718.422-2.407-3.314-4.858-3.314-6.621 0-1.915.969-2.975.969-5.557 0-1.916-.93-3.994-2.334-5.414a4.67 4.67 0 0 0-.87-.7c1.29 1.596 2.28 3.487 2.28 5.678 0 2.43-1.132 3.714-1.132 5.958 0 2.243 3.282 4.185 3.282 6.498 0 .91-.29 1.8-1.25 3.545 1.474 1.472 3.393 2.275 4.631 2.275.402 0 .618-.123.761-.438.124-.273.242-.548.352-.827 1.334.052 1.945 1.264 2.683 1.748a25.17 25.17 0 0 1-1.276 1.577c-.495-.548-1.16-1.47-2.133-1.726-.174.338-.359.672-.553 1 .839.228 1.412 1.074 1.856 1.63-.479.496-.977.972-1.495 1.428-.324-.504-.828-1.143-1.393-1.488-.21.282-.427.558-.65.826.48.326.903.912 1.18 1.39-.599.48-1.218.936-1.86 1.363-.316-2.578-3.834-4.344-2.885-7.334-.312.527-.683 1.186-.683 1.98 0 2.164 2.306 3.882 2.49 6.033-.479.286-.967.555-1.466.81-.083-2.365-2.524-4.952-2.524-6.893 0-2.166 2.837-4.342 2.837-6.899 0-2.559-3.273-4.33-3.273-6.577 0-2.245 1.392-3.536 1.392-6.414 0-2.108-1.001-4.241-2.549-5.604a4.202 4.202 0 0 0-.867-.602c1.459 1.75 2.305 3.338 2.305 5.747 0 2.706-1.596 4.208-1.596 6.857 0 2.65 3.213 4.124 3.213 6.594 0 2.47-2.99 4.552-2.99 7.09 0 2.308 2.635 4.612 2.674 7.35-.576.252-1.163.481-1.76.69.335-2.767-2.631-5.621-2.631-7.88 0-2.467 3.101-4.589 3.101-7.25 0-2.663-3.153-3.9-3.153-6.633 0-2.732 1.934-4.244 1.934-7.262 0-2.353-1.16-4.468-2.858-5.78l-.107-.08c-.16-.119-.292.024-.179.164 1.201 1.5 1.844 3.017 1.844 5.263 0 2.76-2.223 5.004-2.223 7.679 0 3.156 2.985 4.059 2.985 6.649s-3.2 4.66-3.2 7.41c0 2.55 3.028 5.379 2.509 8.322-.608.157-1.224.294-1.849.406.569-3.665-2.402-6.296-2.402-8.693 0-2.596 3.314-4.91 3.314-7.445 0-2.392-2.378-3.174-2.691-5.62-.044-.335-.312-.583-.681-.521-.483.088-1.103.406-2.075.406-.973 0-1.592-.319-2.076-.406-.369-.061-.637.187-.68.52-.312 2.447-2.693 3.228-2.693 5.621 0 2.536 3.315 4.849 3.315 7.445 0 2.397-2.97 5.028-2.403 8.693-.624-.113-1.24-.25-1.848-.406-.52-2.943 2.51-5.773 2.51-8.322 0-2.75-3.201-4.82-3.201-7.41s2.985-3.493 2.985-6.65c0-2.674-2.223-4.917-2.223-7.678 0-2.245.642-3.762 1.844-5.263.113-.14-.019-.283-.18-.165l-.106.082c-1.695 1.307-2.856 3.423-2.856 5.775 0 3.018 1.935 4.53 1.935 7.262 0 2.732-3.153 3.97-3.153 6.634 0 2.66 3.101 4.782 3.101 7.25 0 2.259-2.966 5.112-2.63 7.879a24.81 24.81 0 0 1-1.761-.689c.04-2.738 2.673-5.044 2.673-7.351 0-2.538-2.988-4.62-2.988-7.09 0-2.47 3.21-3.943 3.21-6.593s-1.594-4.152-1.594-6.858c0-2.409.845-3.996 2.305-5.746-.325.168-.594.36-.867.602-1.548 1.363-2.548 3.496-2.548 5.604 0 2.877 1.392 4.17 1.392 6.414 0 2.247-3.273 4.018-3.273 6.577 0 2.557 2.837 4.733 2.837 6.899 0 1.941-2.443 4.529-2.525 6.892a25.056 25.056 0 0 1-1.465-.81c.184-2.15 2.489-3.869 2.489-6.033 0-.794-.37-1.453-.683-1.98.949 2.99-2.57 4.757-2.886 7.334a25.901 25.901 0 0 1-1.859-1.362c.276-.478.7-1.065 1.18-1.39-.224-.268-.44-.544-.65-.827-.566.345-1.07.985-1.394 1.49a26.176 26.176 0 0 1-1.494-1.429c.444-.556 1.017-1.402 1.856-1.63a19.074 19.074 0 0 1-.553-1c-.973.256-1.64 1.178-2.133 1.726a26.109 26.109 0 0 1-1.277-1.578c.739-.483 1.35-1.696 2.683-1.747.111.277.229.553.352.826.144.316.36.438.762.438 1.238 0 3.157-.802 4.631-2.274-.96-1.746-1.25-2.635-1.25-3.545 0-2.313 3.282-4.254 3.282-6.498 0-2.244-1.131-3.528-1.131-5.959 0-2.19.99-4.082 2.279-5.677-.32.2-.598.424-.87.7-1.403 1.42-2.334 3.498-2.334 5.414 0 2.581.97 3.641.97 5.556 0 1.763-3.737 4.215-3.315 6.622-1.304 1.188-2.86 1.718-4.22 1.718.118.5.256.993.411 1.479-1.532.08-2.233 1.388-3.043 1.82-.4-.602-.773-1.22-1.12-1.853 1.364-.143 1.775-1.897 3.681-1.763-.1-.463-.184-.932-.25-1.406-2.194-.147-2.692 1.703-4.134 1.782a25.407 25.407 0 0 1-.838-2.004l4.799-1.83-.01-.593c0-.359.01-.714.03-1.066-2.471-.058-3.223 2.063-5.358 1.853a25.941 25.941 0 0 1-.51-2.052c2.7.334 3.678-1.934 6.106-1.933.11-.65.252-1.285.428-1.91-2.943-.127-3.97 2.432-6.842 1.956a24.89 24.89 0 0 1-.16-1.803c3.338.374 4.59-2.371 7.63-2.036.287-.726.62-1.43.996-2.106-3.812-.67-5.106 2.518-8.654 2.028C.392 10.97 11.603-.002 25.376-.002c13.774 0 24.984 10.973 25.367 24.655-3.548.49-4.842-2.696-8.653-2.027.375.676.708 1.38.996 2.106 3.038-.337 4.29 2.409 7.63 2.036zM14.468 16.124c-1.869-.764-4.13-.588-6.062.653-.3-1.797-1.275-3.394-2.664-4.358-.192-.133-.392-.007-.374.216.293 3.798-1.927 7.096-4.657 9.995 2.814.846 5.21-2.778 8.86-1.513a19.09 19.09 0 0 1 4.897-4.993zm10.908-2.297c-2.355 0-4.329 1.332-4.846 3.053-.04.132.015.218.167.15a3.46 3.46 0 0 1 1.43-.282c.96 0 1.807.352 2.308.966.222.731.24 1.79-.01 2.393-.396-.088-.538-.395-.925-.395-.386 0-.686.272-1.341.272-.655 0-.732-.31-1.163-.31-.506 0-.6.522-.6 1.111 0 2.625 2.413 6.237 4.98 6.237 2.565 0 4.978-3.612 4.978-6.237 0-.589-.121-1.093-.65-1.161-.265.19-.508.36-1.112.36-.655 0-.836-.272-1.222-.272-.466 0-.42.983-.973 1.038-.368-.886-.386-2.023-.08-3.036.502-.614 1.348-.966 2.308-.966.524 0 1.01.092 1.43.281.152.069.206-.018.166-.149-.516-1.721-2.489-3.053-4.845-3.053zm3.751 3.766c-.565 0-1.227.173-1.644.637a.639.639 0 0 0 .018.439c1.025-.351 1.928-.365 2.364.123.233-.211.308-.402.308-.622 0-.341-.347-.577-1.046-.577zm-8.24 1.2c.494-.496 1.536-.475 2.617-.075.048-.538-.916-1.126-1.878-1.126-.7 0-1.046.236-1.046.578 0 .22.075.411.307.622zm16.236-8.886c-1.86.133-3.476.771-4.782 1.836a18.731 18.731 0 0 1 2.152-4.284c-2.368.251-4.348 1.117-5.793 2.598l-1.131-2.965 2.51-2.217-3.361-.238-1.342-3.126-1.342 3.126-3.362.238 2.511 2.217-1.13 2.965c-1.446-1.48-3.426-2.347-5.793-2.598a18.81 18.81 0 0 1 2.151 4.284c-1.306-1.065-2.921-1.704-4.781-1.836 1.115 1.435 2.104 2.964 2.837 4.608.083.186.26.246.452.15a18.965 18.965 0 0 1 8.457-1.978c3.037 0 5.907.713 8.457 1.979.192.095.37.035.451-.15.734-1.645 1.723-3.174 2.84-4.61zm4.061 11.211c3.648-1.264 6.045 2.359 8.86 1.514-2.731-2.9-4.951-6.197-4.657-9.995.017-.223-.183-.35-.374-.216-1.39.963-2.365 2.56-2.664 4.358-1.933-1.241-4.194-1.418-6.062-.653a19.103 19.103 0 0 1 4.897 4.992zm3.306 26.26h-1.292v3.472h-.462v-3.472h-1.288v-.432h3.041v.432zm.541-.432h.686l1.328 3.06h.01l1.331-3.06h.675v3.904h-.466v-3.273h-.01l-1.398 3.273h-.282l-1.403-3.273h-.01v3.273h-.46v-3.904z"/></g></svg>